<?xml version="1.0" encoding="utf-8" standalone="no"?>
<!DOCTYPE svg PUBLIC "-//W3C//DTD SVG 1.1//EN"
  "http://www.w3.org/Graphics/SVG/1.1/DTD/svg11.dtd">
<svg xmlns:xlink="http://www.w3.org/1999/xlink" width="1152pt" height="169.2pt" viewBox="0 0 1152 169.2" xmlns="http://www.w3.org/2000/svg" version="1.1">
 <metadata>
  <rdf:RDF xmlns:dc="http://purl.org/dc/elements/1.1/" xmlns:cc="http://creativecommons.org/ns#" xmlns:rdf="http://www.w3.org/1999/02/22-rdf-syntax-ns#">
   <cc:Work>
    <dc:type rdf:resource="http://purl.org/dc/dcmitype/StillImage"/>
    <dc:date>2026-09-27T06:35:53.250765</dc:date>
    <dc:format>image/svg+xml</dc:format>
    <dc:creator>
     <cc:Agent>
      <dc:title>Matplotlib v3.11.2, https://matplotlib.org/</dc:title>
     </cc:Agent>
    </dc:creator>
   </cc:Work>
  </rdf:RDF>
 </metadata>
 <defs>
  <style type="text/css">*{stroke-linejoin: round; stroke-linecap: butt}</style>
 </defs>
 <g id="figure_1">
  <g id="patch_1">
   <path d="M 0 169.2 
L 1152 169.2 
L 1152 0 
L 0 0 
z
" style="fill: #f8fafc"/>
  </g>
  <g id="axes_1">
   <g id="patch_2">
    <path d="M 46.44 154.8 
L 284.76 154.8 
Q 293.4 154.8 293.4 146.16 
L 293.4 23.04 
Q 293.4 14.4 284.76 14.4 
L 46.44 14.4 
Q 37.8 14.4 37.8 23.04 
L 37.8 146.16 
Q 37.8 154.8 46.44 154.8 
z
" clip-path="url(#p5a2bec0b04)" style="fill: #eef2f6; stroke: #d9e0e8; stroke-width: 0.8; stroke-linejoin: miter"/>
   </g>
   <g id="patch_3">
    <path d="M 320.04 154.8 
L 558.36 154.8 
Q 567 154.8 567 146.16 
L 567 23.04 
Q 567 14.4 558.36 14.4 
L 320.04 14.4 
Q 311.4 14.4 311.4 23.04 
L 311.4 146.16 
Q 311.4 154.8 320.04 154.8 
z
" clip-path="url(#p5a2bec0b04)" style="fill: #eef2f6; stroke: #d9e0e8; stroke-width: 0.8; stroke-linejoin: miter"/>
   </g>
   <g id="patch_4">
    <path d="M 593.64 154.8 
L 831.96 154.8 
Q 840.6 154.8 840.6 146.16 
L 840.6 23.04 
Q 840.6 14.4 831.96 14.4 
L 593.64 14.4 
Q 585 14.4 585 23.04 
L 585 146.16 
Q 585 154.8 593.64 154.8 
z
" clip-path="url(#p5a2bec0b04)" style="fill: #eef2f6; stroke: #d9e0e8; stroke-width: 0.8; stroke-linejoin: miter"/>
   </g>
   <g id="patch_5">
    <path d="M 867.24 154.8 
L 1105.56 154.8 
Q 1114.2 154.8 1114.2 146.16 
L 1114.2 23.04 
Q 1114.2 14.4 1105.56 14.4 
L 867.24 14.4 
Q 858.6 14.4 858.6 23.04 
L 858.6 146.16 
Q 858.6 154.8 867.24 154.8 
z
" clip-path="url(#p5a2bec0b04)" style="fill: #eef2f6; stroke: #d9e0e8; stroke-width: 0.8; stroke-linejoin: miter"/>
   </g>
   <g id="text_1">
    <!-- 0.897 -->
    <g style="fill: #00879e" transform="translate(60.84 72.566) scale(0.38 -0.38)">
     <defs>
      <path id="SourceSans3-Semibold-535" d="M 1638 -77 
Q 1005 -77 630 473 
Q 256 1024 256 2054 
Q 256 3085 630 3616 
Q 1005 4147 1638 4147 
Q 2272 4147 2646 3616 
Q 3021 3085 3021 2054 
Q 3021 1024 2646 473 
Q 2272 -77 1638 -77 
z
M 1638 499 
Q 1837 499 1990 649 
Q 2144 800 2230 1139 
Q 2317 1478 2317 2054 
Q 2317 2630 2230 2963 
Q 2144 3296 1990 3433 
Q 1837 3571 1638 3571 
Q 1446 3571 1292 3433 
Q 1139 3296 1049 2963 
Q 960 2630 960 2054 
Q 960 1478 1049 1139 
Q 1139 800 1292 649 
Q 1446 499 1638 499 
z
" transform="scale(0.015625)"/>
      <path id="SourceSans3-Semibold-56b" d="M 883 -77 
Q 685 -77 544 64 
Q 403 205 403 422 
Q 403 640 544 781 
Q 685 922 883 922 
Q 1088 922 1222 781 
Q 1357 640 1357 422 
Q 1357 205 1222 64 
Q 1088 -77 883 -77 
z
" transform="scale(0.015625)"/>
      <path id="SourceSans3-Semibold-53d" d="M 1645 -77 
Q 1248 -77 934 67 
Q 621 211 441 460 
Q 262 710 262 1043 
Q 262 1421 486 1677 
Q 710 1933 998 2086 
L 998 2112 
Q 762 2278 598 2512 
Q 435 2746 435 3066 
Q 435 3398 595 3638 
Q 755 3878 1033 4012 
Q 1312 4147 1664 4147 
Q 2214 4147 2537 3843 
Q 2861 3539 2861 3046 
Q 2861 2746 2688 2502 
Q 2515 2259 2317 2112 
L 2317 2086 
Q 2598 1926 2809 1683 
Q 3021 1440 3021 1030 
Q 3021 717 2848 467 
Q 2675 218 2368 70 
Q 2061 -77 1645 -77 
z
M 1914 2298 
Q 2080 2464 2166 2637 
Q 2253 2810 2253 3002 
Q 2253 3270 2093 3446 
Q 1933 3622 1651 3622 
Q 1414 3622 1254 3475 
Q 1094 3328 1094 3066 
Q 1094 2861 1203 2723 
Q 1312 2586 1501 2486 
Q 1690 2387 1914 2298 
z
M 1658 448 
Q 1952 448 2141 611 
Q 2330 774 2330 1056 
Q 2330 1280 2198 1421 
Q 2067 1562 1846 1667 
Q 1626 1773 1350 1882 
Q 1158 1741 1033 1549 
Q 909 1357 909 1120 
Q 909 819 1126 633 
Q 1344 448 1658 448 
z
" transform="scale(0.015625)"/>
      <path id="SourceSans3-Semibold-53e" d="M 915 2816 
Q 915 2458 1084 2272 
Q 1254 2086 1562 2086 
Q 1741 2086 1936 2198 
Q 2131 2310 2291 2560 
Q 2234 3098 2029 3341 
Q 1824 3584 1523 3584 
Q 1274 3584 1094 3385 
Q 915 3187 915 2816 
z
M 1389 -77 
Q 1024 -77 755 57 
Q 486 192 301 384 
L 698 832 
Q 813 698 989 611 
Q 1165 525 1350 525 
Q 1606 525 1817 665 
Q 2029 806 2163 1136 
Q 2298 1466 2310 2029 
Q 2131 1811 1888 1683 
Q 1645 1555 1421 1555 
Q 896 1555 566 1865 
Q 237 2176 237 2816 
Q 237 3226 413 3523 
Q 589 3821 880 3984 
Q 1171 4147 1517 4147 
Q 1914 4147 2250 3936 
Q 2586 3725 2787 3286 
Q 2989 2848 2989 2163 
Q 2989 1376 2765 880 
Q 2541 384 2176 153 
Q 1811 -77 1389 -77 
z
" transform="scale(0.015625)"/>
      <path id="SourceSans3-Semibold-53c" d="M 1024 0 
Q 1062 723 1187 1296 
Q 1312 1869 1561 2384 
Q 1811 2899 2214 3450 
L 282 3450 
L 282 4070 
L 3014 4070 
L 3014 3622 
Q 2650 3174 2416 2771 
Q 2182 2368 2051 1955 
Q 1920 1542 1859 1068 
Q 1798 595 1773 0 
L 1024 0 
z
" transform="scale(0.015625)"/>
     </defs>
     <use xlink:href="#SourceSans3-Semibold-535"/>
     <use xlink:href="#SourceSans3-Semibold-56b" transform="translate(51.296875 0)"/>
     <use xlink:href="#SourceSans3-Semibold-53d" transform="translate(78.796875 0)"/>
     <use xlink:href="#SourceSans3-Semibold-53e" transform="translate(130.09375 0)"/>
     <use xlink:href="#SourceSans3-Semibold-53c" transform="translate(181.390625 0)"/>
    </g>
   </g>
   <g id="text_2">
    <!-- ROC-AUC on a future month -->
    <g style="fill: #475569" transform="translate(62.28 110.789419) scale(0.14 -0.14)">
     <defs>
      <path id="SourceSans3-Regular-13" d="M 576 0 
L 576 4198 
L 1888 4198 
Q 2317 4198 2649 4086 
Q 2982 3974 3171 3715 
Q 3360 3456 3360 3021 
Q 3360 2534 3104 2236 
Q 2848 1939 2413 1830 
L 3482 0 
L 2880 0 
L 1869 1773 
L 1107 1773 
L 1107 0 
L 576 0 
z
M 1107 2208 
L 1811 2208 
Q 2304 2208 2566 2409 
Q 2829 2611 2829 3021 
Q 2829 3437 2566 3603 
Q 2304 3770 1811 3770 
L 1107 3770 
L 1107 2208 
z
" transform="scale(0.015625)"/>
      <path id="SourceSans3-Regular-10" d="M 2125 -77 
Q 1600 -77 1193 192 
Q 787 461 560 953 
Q 333 1446 333 2118 
Q 333 2790 560 3273 
Q 787 3757 1193 4016 
Q 1600 4275 2125 4275 
Q 2656 4275 3059 4016 
Q 3462 3757 3692 3273 
Q 3923 2790 3923 2118 
Q 3923 1446 3692 953 
Q 3462 461 3059 192 
Q 2656 -77 2125 -77 
z
M 2125 390 
Q 2502 390 2780 604 
Q 3059 819 3212 1206 
Q 3366 1594 3366 2118 
Q 3366 2899 3027 3353 
Q 2688 3808 2125 3808 
Q 1562 3808 1222 3353 
Q 883 2899 883 2118 
Q 883 1594 1036 1206 
Q 1190 819 1472 604 
Q 1754 390 2125 390 
z
" transform="scale(0.015625)"/>
      <path id="SourceSans3-Regular-4" d="M 2170 -77 
Q 1645 -77 1229 182 
Q 813 442 573 928 
Q 333 1414 333 2099 
Q 333 2778 576 3264 
Q 819 3750 1241 4012 
Q 1664 4275 2195 4275 
Q 2573 4275 2870 4124 
Q 3168 3974 3347 3757 
L 3059 3430 
Q 2893 3610 2678 3709 
Q 2464 3808 2202 3808 
Q 1811 3808 1513 3600 
Q 1216 3392 1049 3014 
Q 883 2637 883 2112 
Q 883 1587 1046 1200 
Q 1210 813 1507 601 
Q 1805 390 2208 390 
Q 2502 390 2736 502 
Q 2970 614 3168 832 
L 3443 525 
Q 3187 237 2883 80 
Q 2579 -77 2170 -77 
z
" transform="scale(0.015625)"/>
      <path id="SourceSans3-Regular-587" d="M 262 1402 
L 262 1805 
L 1734 1805 
L 1734 1402 
L 262 1402 
z
" transform="scale(0.015625)"/>
      <path id="SourceSans3-Regular-2" d="M 1299 2349 
L 1101 1709 
L 2362 1709 
L 2163 2349 
Q 2048 2701 1945 3049 
Q 1843 3398 1741 3763 
L 1715 3763 
Q 1619 3398 1516 3049 
Q 1414 2701 1299 2349 
z
M 19 0 
L 1440 4198 
L 2042 4198 
L 3462 0 
L 2893 0 
L 2496 1280 
L 966 1280 
L 563 0 
L 19 0 
z
" transform="scale(0.015625)"/>
      <path id="SourceSans3-Regular-16" d="M 2067 -77 
Q 1638 -77 1296 92 
Q 954 262 755 652 
Q 557 1043 557 1709 
L 557 4198 
L 1088 4198 
L 1088 1696 
Q 1088 1203 1219 915 
Q 1350 627 1571 508 
Q 1792 390 2067 390 
Q 2349 390 2573 508 
Q 2797 627 2928 915 
Q 3059 1203 3059 1696 
L 3059 4198 
L 3571 4198 
L 3571 1709 
Q 3571 1043 3372 652 
Q 3174 262 2835 92 
Q 2496 -77 2067 -77 
z
" transform="scale(0.015625)"/>
      <path id="SourceSans3-Regular-1" transform="scale(0.015625)"/>
      <path id="SourceSans3-Regular-2a" d="M 1734 -77 
Q 1357 -77 1027 115 
Q 698 307 496 672 
Q 294 1037 294 1549 
Q 294 2074 496 2438 
Q 698 2803 1027 2995 
Q 1357 3187 1734 3187 
Q 2118 3187 2444 2995 
Q 2771 2803 2972 2438 
Q 3174 2074 3174 1549 
Q 3174 1037 2972 672 
Q 2771 307 2444 115 
Q 2118 -77 1734 -77 
z
M 1734 358 
Q 2138 358 2384 688 
Q 2630 1018 2630 1549 
Q 2630 2086 2384 2419 
Q 2138 2752 1734 2752 
Q 1338 2752 1088 2419 
Q 838 2086 838 1549 
Q 838 1018 1088 688 
Q 1338 358 1734 358 
z
" transform="scale(0.015625)"/>
      <path id="SourceSans3-Regular-29" d="M 525 0 
L 525 3110 
L 960 3110 
L 1005 2662 
L 1024 2662 
Q 1248 2886 1497 3036 
Q 1747 3187 2067 3187 
Q 2560 3187 2787 2876 
Q 3014 2566 3014 1971 
L 3014 0 
L 2490 0 
L 2490 1901 
Q 2490 2336 2349 2534 
Q 2208 2733 1901 2733 
Q 1664 2733 1475 2611 
Q 1286 2490 1050 2253 
L 1050 0 
L 525 0 
z
" transform="scale(0.015625)"/>
      <path id="SourceSans3-Regular-1c" d="M 1242 -77 
Q 851 -77 588 153 
Q 326 384 326 806 
Q 326 1331 787 1600 
Q 1248 1869 2246 1978 
Q 2246 2176 2188 2349 
Q 2131 2522 1993 2634 
Q 1856 2746 1600 2746 
Q 1331 2746 1094 2643 
Q 858 2541 672 2426 
L 467 2784 
Q 685 2931 1001 3059 
Q 1318 3187 1690 3187 
Q 2259 3187 2515 2838 
Q 2771 2490 2771 1907 
L 2771 0 
L 2336 0 
L 2291 371 
L 2272 371 
Q 2042 186 1789 54 
Q 1536 -77 1242 -77 
z
M 1389 358 
Q 1613 358 1817 460 
Q 2022 563 2246 762 
L 2246 1600 
Q 1722 1542 1414 1440 
Q 1107 1338 976 1190 
Q 845 1043 845 838 
Q 845 582 1005 470 
Q 1165 358 1389 358 
z
" transform="scale(0.015625)"/>
      <path id="SourceSans3-Regular-21" d="M 614 0 
L 614 2682 
L 154 2682 
L 154 3078 
L 614 3110 
L 614 3603 
Q 614 4077 835 4355 
Q 1056 4634 1523 4634 
Q 1670 4634 1804 4605 
Q 1939 4576 2042 4531 
L 1926 4147 
Q 1734 4205 1574 4205 
Q 1139 4205 1139 3603 
L 1139 3110 
L 1798 3110 
L 1798 2682 
L 1139 2682 
L 1139 0 
L 614 0 
z
" transform="scale(0.015625)"/>
      <path id="SourceSans3-Regular-30" d="M 1434 -77 
Q 941 -77 710 233 
Q 480 544 480 1139 
L 480 3110 
L 1011 3110 
L 1011 1210 
Q 1011 774 1148 576 
Q 1286 378 1594 378 
Q 1837 378 2025 502 
Q 2214 627 2432 902 
L 2432 3110 
L 2957 3110 
L 2957 0 
L 2522 0 
L 2477 486 
L 2458 486 
Q 2240 230 1997 76 
Q 1754 -77 1434 -77 
z
" transform="scale(0.015625)"/>
      <path id="SourceSans3-Regular-2f" d="M 1504 -58 
Q 1005 -58 809 227 
Q 614 512 614 979 
L 614 2682 
L 154 2682 
L 154 3078 
L 640 3110 
L 704 4109 
L 1146 4109 
L 1146 3110 
L 1984 3110 
L 1984 2682 
L 1146 2682 
L 1146 966 
Q 1146 685 1251 528 
Q 1357 371 1626 371 
Q 1709 371 1798 387 
Q 1888 403 1978 448 
L 2086 77 
Q 1965 13 1814 -22 
Q 1664 -58 1504 -58 
z
" transform="scale(0.015625)"/>
      <path id="SourceSans3-Regular-2d" d="M 525 0 
L 525 3110 
L 960 3110 
L 1005 2547 
L 1024 2547 
Q 1178 2842 1408 3014 
Q 1638 3187 1907 3187 
Q 2093 3187 2240 3123 
L 2125 2675 
Q 2054 2694 1993 2704 
Q 1933 2714 1837 2714 
Q 1638 2714 1424 2554 
Q 1210 2394 1050 1997 
L 1050 0 
L 525 0 
z
" transform="scale(0.015625)"/>
      <path id="SourceSans3-Regular-20" d="M 1702 2758 
Q 1510 2758 1328 2665 
Q 1146 2573 1014 2368 
Q 883 2163 838 1830 
L 2458 1830 
Q 2458 2285 2259 2521 
Q 2061 2758 1702 2758 
z
M 1786 -77 
Q 1370 -77 1027 115 
Q 685 307 486 675 
Q 288 1043 288 1555 
Q 288 2061 489 2425 
Q 691 2790 1014 2988 
Q 1338 3187 1696 3187 
Q 2298 3187 2614 2790 
Q 2931 2394 2931 1728 
Q 2931 1645 2924 1568 
Q 2918 1491 2906 1414 
L 826 1414 
Q 864 890 1161 621 
Q 1459 352 1850 352 
Q 2074 352 2269 416 
Q 2464 480 2624 589 
L 2816 243 
Q 2611 102 2358 12 
Q 2106 -77 1786 -77 
z
" transform="scale(0.015625)"/>
      <path id="SourceSans3-Regular-28" d="M 525 0 
L 525 3110 
L 960 3110 
L 1005 2662 
L 1024 2662 
Q 1229 2886 1472 3036 
Q 1715 3187 1990 3187 
Q 2349 3187 2550 3030 
Q 2752 2874 2848 2592 
Q 3091 2854 3340 3020 
Q 3590 3187 3872 3187 
Q 4352 3187 4585 2876 
Q 4819 2566 4819 1971 
L 4819 0 
L 4294 0 
L 4294 1901 
Q 4294 2336 4153 2534 
Q 4013 2733 3718 2733 
Q 3373 2733 2938 2253 
L 2938 0 
L 2413 0 
L 2413 1901 
Q 2413 2336 2272 2534 
Q 2131 2733 1830 2733 
Q 1485 2733 1050 2253 
L 1050 0 
L 525 0 
z
" transform="scale(0.015625)"/>
      <path id="SourceSans3-Regular-23" d="M 525 0 
L 525 4557 
L 1050 4557 
L 1050 3315 
L 1030 2675 
Q 1254 2886 1500 3036 
Q 1747 3187 2067 3187 
Q 2560 3187 2787 2876 
Q 3014 2566 3014 1971 
L 3014 0 
L 2490 0 
L 2490 1901 
Q 2490 2336 2349 2534 
Q 2208 2733 1901 2733 
Q 1664 2733 1475 2611 
Q 1286 2490 1050 2253 
L 1050 0 
L 525 0 
z
" transform="scale(0.015625)"/>
     </defs>
     <use xlink:href="#SourceSans3-Regular-13"/>
     <use xlink:href="#SourceSans3-Regular-10" transform="translate(56.90625 0)"/>
     <use xlink:href="#SourceSans3-Regular-4" transform="translate(123.3125 0)"/>
     <use xlink:href="#SourceSans3-Regular-587" transform="translate(177.8125 0)"/>
     <use xlink:href="#SourceSans3-Regular-2" transform="translate(208.90625 0)"/>
     <use xlink:href="#SourceSans3-Regular-16" transform="translate(261.8125 0)"/>
     <use xlink:href="#SourceSans3-Regular-4" transform="translate(326.3125 0)"/>
     <use xlink:href="#SourceSans3-Regular-1" transform="translate(383.40625 0)"/>
     <use xlink:href="#SourceSans3-Regular-2a" transform="translate(403.40625 0)"/>
     <use xlink:href="#SourceSans3-Regular-29" transform="translate(457.609375 0)"/>
     <use xlink:href="#SourceSans3-Regular-1" transform="translate(512.3125 0)"/>
     <use xlink:href="#SourceSans3-Regular-1c" transform="translate(532.3125 0)"/>
     <use xlink:href="#SourceSans3-Regular-1" transform="translate(582.71875 0)"/>
     <use xlink:href="#SourceSans3-Regular-21" transform="translate(602.71875 0)"/>
     <use xlink:href="#SourceSans3-Regular-30" transform="translate(631.921875 0)"/>
     <use xlink:href="#SourceSans3-Regular-2f" transform="translate(686.328125 0)"/>
     <use xlink:href="#SourceSans3-Regular-30" transform="translate(720.125 0)"/>
     <use xlink:href="#SourceSans3-Regular-2d" transform="translate(774.53125 0)"/>
     <use xlink:href="#SourceSans3-Regular-20" transform="translate(808.234375 0)"/>
     <use xlink:href="#SourceSans3-Regular-1" transform="translate(857.828125 0)"/>
     <use xlink:href="#SourceSans3-Regular-28" transform="translate(877.828125 0)"/>
     <use xlink:href="#SourceSans3-Regular-2a" transform="translate(960.734375 0)"/>
     <use xlink:href="#SourceSans3-Regular-29" transform="translate(1014.9375 0)"/>
     <use xlink:href="#SourceSans3-Regular-2f" transform="translate(1069.640625 0)"/>
     <use xlink:href="#SourceSans3-Regular-23" transform="translate(1103.4375 0)"/>
    </g>
    <!-- the model never saw -->
    <g style="fill: #475569" transform="translate(62.28 136.6948) scale(0.14 -0.14)">
     <defs>
      <path id="SourceSans3-Regular-1f" d="M 1587 -77 
Q 1005 -77 653 348 
Q 301 774 301 1549 
Q 301 2054 489 2422 
Q 678 2790 988 2988 
Q 1299 3187 1651 3187 
Q 1920 3187 2118 3091 
Q 2317 2995 2522 2829 
L 2496 3360 
L 2496 4557 
L 3027 4557 
L 3027 0 
L 2592 0 
L 2547 365 
L 2528 365 
Q 2349 186 2105 54 
Q 1862 -77 1587 -77 
z
M 1702 365 
Q 2112 365 2496 794 
L 2496 2419 
Q 2298 2598 2115 2672 
Q 1933 2746 1741 2746 
Q 1491 2746 1289 2595 
Q 1088 2445 966 2179 
Q 845 1914 845 1555 
Q 845 998 1069 681 
Q 1293 365 1702 365 
z
" transform="scale(0.015625)"/>
      <path id="SourceSans3-Regular-27" d="M 1082 -58 
Q 787 -58 656 124 
Q 525 307 525 640 
L 525 4557 
L 1050 4557 
L 1050 602 
Q 1050 480 1094 429 
Q 1139 378 1203 378 
Q 1229 378 1251 381 
Q 1274 384 1312 390 
L 1382 -6 
Q 1267 -58 1082 -58 
z
" transform="scale(0.015625)"/>
      <path id="SourceSans3-Regular-31" d="M 1197 0 
L 77 3110 
L 621 3110 
L 1210 1344 
Q 1280 1114 1353 883 
Q 1427 653 1498 429 
L 1523 429 
Q 1594 653 1667 883 
Q 1741 1114 1805 1344 
L 2394 3110 
L 2912 3110 
L 1811 0 
L 1197 0 
z
" transform="scale(0.015625)"/>
      <path id="SourceSans3-Regular-2e" d="M 1338 -77 
Q 998 -77 697 41 
Q 397 160 179 371 
L 422 678 
Q 627 512 848 422 
Q 1069 333 1357 333 
Q 1664 333 1817 477 
Q 1971 621 1971 819 
Q 1971 979 1868 1084 
Q 1766 1190 1606 1264 
Q 1446 1338 1267 1402 
Q 1037 1485 825 1597 
Q 614 1709 483 1878 
Q 352 2048 352 2304 
Q 352 2682 637 2934 
Q 922 3187 1427 3187 
Q 1715 3187 1964 3088 
Q 2214 2989 2394 2835 
L 2150 2534 
Q 1990 2650 1814 2714 
Q 1638 2778 1427 2778 
Q 1133 2778 995 2643 
Q 858 2509 858 2330 
Q 858 2118 1043 2009 
Q 1229 1901 1517 1798 
Q 1760 1715 1981 1600 
Q 2202 1485 2339 1309 
Q 2477 1133 2477 851 
Q 2477 602 2345 390 
Q 2214 179 1961 51 
Q 1709 -77 1338 -77 
z
" transform="scale(0.015625)"/>
      <path id="SourceSans3-Regular-32" d="M 1018 0 
L 154 3110 
L 704 3110 
L 1158 1312 
Q 1210 1101 1254 889 
Q 1299 678 1338 429 
L 1363 429 
Q 1414 678 1462 889 
Q 1510 1101 1562 1312 
L 2022 3110 
L 2598 3110 
L 3066 1312 
Q 3123 1101 3174 889 
Q 3226 678 3270 429 
L 3296 429 
Q 3347 678 3392 889 
Q 3437 1101 3482 1312 
L 3936 3110 
L 4448 3110 
L 3610 0 
L 2925 0 
L 2509 1664 
Q 2451 1882 2406 2096 
Q 2362 2310 2310 2586 
L 2285 2586 
Q 2240 2310 2192 2092 
Q 2144 1875 2086 1664 
L 1670 0 
L 1018 0 
z
" transform="scale(0.015625)"/>
     </defs>
     <use xlink:href="#SourceSans3-Regular-2f"/>
     <use xlink:href="#SourceSans3-Regular-23" transform="translate(33.796875 0)"/>
     <use xlink:href="#SourceSans3-Regular-20" transform="translate(88.203125 0)"/>
     <use xlink:href="#SourceSans3-Regular-1" transform="translate(137.796875 0)"/>
     <use xlink:href="#SourceSans3-Regular-28" transform="translate(157.796875 0)"/>
     <use xlink:href="#SourceSans3-Regular-2a" transform="translate(240.703125 0)"/>
     <use xlink:href="#SourceSans3-Regular-1f" transform="translate(294.90625 0)"/>
     <use xlink:href="#SourceSans3-Regular-20" transform="translate(350.40625 0)"/>
     <use xlink:href="#SourceSans3-Regular-27" transform="translate(400 0)"/>
     <use xlink:href="#SourceSans3-Regular-1" transform="translate(425.5 0)"/>
     <use xlink:href="#SourceSans3-Regular-29" transform="translate(445.5 0)"/>
     <use xlink:href="#SourceSans3-Regular-20" transform="translate(500.203125 0)"/>
     <use xlink:href="#SourceSans3-Regular-31" transform="translate(550.296875 0)"/>
     <use xlink:href="#SourceSans3-Regular-20" transform="translate(596.59375 0)"/>
     <use xlink:href="#SourceSans3-Regular-2d" transform="translate(646.1875 0)"/>
     <use xlink:href="#SourceSans3-Regular-1" transform="translate(680.890625 0)"/>
     <use xlink:href="#SourceSans3-Regular-2e" transform="translate(700.890625 0)"/>
     <use xlink:href="#SourceSans3-Regular-1c" transform="translate(742.796875 0)"/>
     <use xlink:href="#SourceSans3-Regular-32" transform="translate(793.203125 0)"/>
    </g>
   </g>
   <g id="text_3">
    <!-- 74% -->
    <g style="fill: #0f172a" transform="translate(334.44 72.566) scale(0.38 -0.38)">
     <defs>
      <path id="SourceSans3-Semibold-539" d="M 845 1619 
L 1914 1619 
L 1914 2541 
Q 1914 2720 1926 2963 
Q 1939 3206 1946 3386 
L 1920 3386 
Q 1843 3226 1760 3072 
Q 1677 2918 1587 2752 
L 845 1619 
z
M 1914 0 
L 1914 1050 
L 115 1050 
L 115 1549 
L 1728 4070 
L 2605 4070 
L 2605 1619 
L 3117 1619 
L 3117 1050 
L 2605 1050 
L 2605 0 
L 1914 0 
z
" transform="scale(0.015625)"/>
      <path id="SourceSans3-Semibold-85c" d="M 1190 1613 
Q 749 1613 470 1962 
Q 192 2311 192 2944 
Q 192 3572 470 3917 
Q 749 4263 1190 4263 
Q 1632 4263 1910 3917 
Q 2189 3572 2189 2944 
Q 2189 2311 1910 1962 
Q 1632 1613 1190 1613 
z
M 1190 2042 
Q 1395 2042 1526 2259 
Q 1658 2477 1658 2944 
Q 1658 3418 1526 3626 
Q 1395 3834 1190 3834 
Q 992 3834 857 3626 
Q 723 3418 723 2944 
Q 723 2477 857 2259 
Q 992 2042 1190 2042 
z
M 1324 -77 
L 3609 4262 
L 4057 4262 
L 1779 -77 
L 1324 -77 
z
M 4192 -77 
Q 3751 -77 3472 272 
Q 3194 621 3194 1254 
Q 3194 1882 3472 2227 
Q 3751 2573 4192 2573 
Q 4634 2573 4912 2227 
Q 5191 1882 5191 1254 
Q 5191 621 4912 272 
Q 4634 -77 4192 -77 
z
M 4192 352 
Q 4397 352 4528 569 
Q 4660 787 4660 1254 
Q 4660 1728 4528 1936 
Q 4397 2144 4192 2144 
Q 3994 2144 3859 1936 
Q 3725 1728 3725 1254 
Q 3725 787 3859 569 
Q 3994 352 4192 352 
z
" transform="scale(0.015625)"/>
     </defs>
     <use xlink:href="#SourceSans3-Semibold-53c"/>
     <use xlink:href="#SourceSans3-Semibold-539" transform="translate(51.296875 0)"/>
     <use xlink:href="#SourceSans3-Semibold-85c" transform="translate(102.59375 0)"/>
    </g>
   </g>
   <g id="text_4">
    <!-- of churners reached by -->
    <g style="fill: #475569" transform="translate(335.88 109.4102) scale(0.14 -0.14)">
     <defs>
      <path id="SourceSans3-Regular-1e" d="M 1760 -77 
Q 1344 -77 1011 115 
Q 678 307 486 672 
Q 294 1037 294 1549 
Q 294 2074 502 2438 
Q 710 2803 1052 2995 
Q 1395 3187 1792 3187 
Q 2099 3187 2320 3084 
Q 2541 2982 2701 2822 
L 2438 2502 
Q 2317 2611 2166 2681 
Q 2016 2752 1811 2752 
Q 1536 2752 1315 2601 
Q 1094 2451 966 2179 
Q 838 1907 838 1549 
Q 838 1018 1107 688 
Q 1376 358 1805 358 
Q 2016 358 2201 441 
Q 2387 525 2528 653 
L 2758 333 
Q 2566 147 2313 35 
Q 2061 -77 1760 -77 
z
" transform="scale(0.015625)"/>
      <path id="SourceSans3-Regular-1d" d="M 1901 -77 
Q 1683 -77 1449 28 
Q 1216 134 1011 320 
L 992 320 
L 947 0 
L 525 0 
L 525 4557 
L 1050 4557 
L 1050 3315 
L 1037 2752 
Q 1248 2938 1501 3062 
Q 1754 3187 2010 3187 
Q 2618 3187 2931 2758 
Q 3245 2330 3245 1606 
Q 3245 1075 3056 697 
Q 2867 320 2563 121 
Q 2259 -77 1901 -77 
z
M 1811 365 
Q 2195 365 2448 694 
Q 2701 1024 2701 1600 
Q 2701 2112 2512 2429 
Q 2323 2746 1882 2746 
Q 1683 2746 1478 2637 
Q 1274 2528 1050 2323 
L 1050 691 
Q 1254 512 1456 438 
Q 1658 365 1811 365 
z
" transform="scale(0.015625)"/>
      <path id="SourceSans3-Regular-34" d="M 576 -1338 
Q 474 -1338 381 -1318 
Q 288 -1299 211 -1274 
L 326 -864 
Q 442 -902 550 -902 
Q 813 -902 985 -713 
Q 1158 -525 1254 -237 
L 1325 -6 
L 77 3110 
L 621 3110 
L 1254 1389 
Q 1325 1190 1405 960 
Q 1485 730 1555 512 
L 1581 512 
Q 1651 723 1715 953 
Q 1779 1184 1843 1389 
L 2400 3110 
L 2912 3110 
L 1741 -256 
Q 1632 -563 1481 -806 
Q 1331 -1050 1110 -1194 
Q 890 -1338 576 -1338 
z
" transform="scale(0.015625)"/>
     </defs>
     <use xlink:href="#SourceSans3-Regular-2a"/>
     <use xlink:href="#SourceSans3-Regular-21" transform="translate(54.203125 0)"/>
     <use xlink:href="#SourceSans3-Regular-1" transform="translate(83.40625 0)"/>
     <use xlink:href="#SourceSans3-Regular-1e" transform="translate(103.40625 0)"/>
     <use xlink:href="#SourceSans3-Regular-23" transform="translate(149 0)"/>
     <use xlink:href="#SourceSans3-Regular-30" transform="translate(203.40625 0)"/>
     <use xlink:href="#SourceSans3-Regular-2d" transform="translate(257.8125 0)"/>
     <use xlink:href="#SourceSans3-Regular-29" transform="translate(292.515625 0)"/>
     <use xlink:href="#SourceSans3-Regular-20" transform="translate(347.21875 0)"/>
     <use xlink:href="#SourceSans3-Regular-2d" transform="translate(396.8125 0)"/>
     <use xlink:href="#SourceSans3-Regular-2e" transform="translate(431.109375 0)"/>
     <use xlink:href="#SourceSans3-Regular-1" transform="translate(473.015625 0)"/>
     <use xlink:href="#SourceSans3-Regular-2d" transform="translate(493.015625 0)"/>
     <use xlink:href="#SourceSans3-Regular-20" transform="translate(526.71875 0)"/>
     <use xlink:href="#SourceSans3-Regular-1c" transform="translate(574.90625 0)"/>
     <use xlink:href="#SourceSans3-Regular-1e" transform="translate(625.3125 0)"/>
     <use xlink:href="#SourceSans3-Regular-23" transform="translate(670.90625 0)"/>
     <use xlink:href="#SourceSans3-Regular-20" transform="translate(725.3125 0)"/>
     <use xlink:href="#SourceSans3-Regular-1f" transform="translate(774.90625 0)"/>
     <use xlink:href="#SourceSans3-Regular-1" transform="translate(830.40625 0)"/>
     <use xlink:href="#SourceSans3-Regular-1d" transform="translate(850.40625 0)"/>
     <use xlink:href="#SourceSans3-Regular-34" transform="translate(905.296875 0)"/>
    </g>
    <!-- contacting only 10% -->
    <g style="fill: #475569" transform="translate(335.88 135.210581) scale(0.14 -0.14)">
     <defs>
      <path id="SourceSans3-Regular-24" d="M 525 0 
L 525 3110 
L 1050 3110 
L 1050 0 
L 525 0 
z
M 787 3750 
Q 633 3750 534 3843 
Q 435 3936 435 4096 
Q 435 4250 534 4346 
Q 633 4442 787 4442 
Q 941 4442 1040 4346 
Q 1139 4250 1139 4096 
Q 1139 3936 1040 3843 
Q 941 3750 787 3750 
z
" transform="scale(0.015625)"/>
      <path id="SourceSans3-Regular-22" d="M 1574 -1434 
Q 1005 -1434 646 -1216 
Q 288 -998 288 -595 
Q 288 -397 409 -214 
Q 531 -32 742 109 
L 742 134 
Q 627 205 547 333 
Q 467 461 467 640 
Q 467 838 576 985 
Q 685 1133 806 1216 
L 806 1242 
Q 653 1370 528 1587 
Q 403 1805 403 2080 
Q 403 2419 563 2668 
Q 723 2918 992 3052 
Q 1261 3187 1574 3187 
Q 1702 3187 1817 3164 
Q 1933 3142 2016 3110 
L 3098 3110 
L 3098 2707 
L 2451 2707 
L 2451 2682 
Q 2560 2579 2637 2425 
Q 2714 2272 2714 2061 
Q 2714 1734 2560 1491 
Q 2406 1248 2150 1117 
Q 1894 986 1574 986 
Q 1325 986 1107 1094 
Q 1024 1024 966 937 
Q 909 851 909 723 
Q 909 576 1027 480 
Q 1146 384 1459 384 
L 2061 384 
Q 2605 384 2877 208 
Q 3149 32 3149 -358 
Q 3149 -646 2957 -889 
Q 2765 -1133 2413 -1283 
Q 2061 -1434 1574 -1434 
z
M 1574 1338 
Q 1843 1338 2038 1539 
Q 2234 1741 2234 2080 
Q 2234 2419 2042 2611 
Q 1850 2803 1574 2803 
Q 1299 2803 1107 2611 
Q 915 2419 915 2080 
Q 915 1741 1110 1539 
Q 1306 1338 1574 1338 
z
M 1651 -1069 
Q 2099 -1069 2368 -873 
Q 2637 -678 2637 -435 
Q 2637 -218 2473 -134 
Q 2310 -51 2010 -51 
L 1472 -51 
Q 1382 -51 1276 -38 
Q 1171 -26 1069 0 
Q 902 -122 825 -256 
Q 749 -390 749 -525 
Q 749 -774 989 -921 
Q 1229 -1069 1651 -1069 
z
" transform="scale(0.015625)"/>
      <path id="SourceSans3-Regular-536" d="M 506 0 
L 506 435 
L 1440 435 
L 1440 3443 
L 698 3443 
L 698 3782 
Q 979 3834 1187 3907 
Q 1395 3981 1562 4083 
L 1965 4083 
L 1965 435 
L 2810 435 
L 2810 0 
L 506 0 
z
" transform="scale(0.015625)"/>
      <path id="SourceSans3-Regular-535" d="M 1594 -77 
Q 979 -77 630 476 
Q 282 1030 282 2054 
Q 282 3085 630 3622 
Q 979 4160 1594 4160 
Q 2202 4160 2550 3622 
Q 2899 3085 2899 2054 
Q 2899 1030 2550 476 
Q 2202 -77 1594 -77 
z
M 1594 346 
Q 1952 346 2169 752 
Q 2387 1158 2387 2054 
Q 2387 2950 2169 3344 
Q 1952 3738 1594 3738 
Q 1235 3738 1014 3344 
Q 794 2950 794 2054 
Q 794 1158 1014 752 
Q 1235 346 1594 346 
z
" transform="scale(0.015625)"/>
      <path id="SourceSans3-Regular-85c" d="M 1178 1625 
Q 749 1625 486 1970 
Q 224 2316 224 2956 
Q 224 3584 486 3929 
Q 749 4275 1178 4275 
Q 1606 4275 1868 3929 
Q 2131 3584 2131 2956 
Q 2131 2316 1868 1970 
Q 1606 1625 1178 1625 
z
M 1178 1952 
Q 1421 1952 1574 2204 
Q 1728 2457 1728 2956 
Q 1728 3456 1574 3702 
Q 1421 3948 1178 3948 
Q 928 3948 774 3702 
Q 621 3456 621 2956 
Q 621 2457 774 2204 
Q 928 1952 1178 1952 
z
M 1299 -77 
L 3616 4275 
L 3974 4275 
L 1658 -77 
L 1299 -77 
z
M 4103 -77 
Q 3674 -77 3411 268 
Q 3149 614 3149 1254 
Q 3149 1882 3411 2227 
Q 3674 2573 4103 2573 
Q 4531 2573 4793 2227 
Q 5056 1882 5056 1254 
Q 5056 614 4793 268 
Q 4531 -77 4103 -77 
z
M 4103 250 
Q 4346 250 4499 502 
Q 4653 755 4653 1254 
Q 4653 1754 4499 2000 
Q 4346 2246 4103 2246 
Q 3853 2246 3699 2000 
Q 3546 1754 3546 1254 
Q 3546 755 3699 502 
Q 3853 250 4103 250 
z
" transform="scale(0.015625)"/>
     </defs>
     <use xlink:href="#SourceSans3-Regular-1e"/>
     <use xlink:href="#SourceSans3-Regular-2a" transform="translate(43.5 0)"/>
     <use xlink:href="#SourceSans3-Regular-29" transform="translate(97.703125 0)"/>
     <use xlink:href="#SourceSans3-Regular-2f" transform="translate(152.40625 0)"/>
     <use xlink:href="#SourceSans3-Regular-1c" transform="translate(184.109375 0)"/>
     <use xlink:href="#SourceSans3-Regular-1e" transform="translate(234.515625 0)"/>
     <use xlink:href="#SourceSans3-Regular-2f" transform="translate(279.109375 0)"/>
     <use xlink:href="#SourceSans3-Regular-24" transform="translate(312.90625 0)"/>
     <use xlink:href="#SourceSans3-Regular-29" transform="translate(337.5 0)"/>
     <use xlink:href="#SourceSans3-Regular-22" transform="translate(392.203125 0)"/>
     <use xlink:href="#SourceSans3-Regular-1" transform="translate(442.609375 0)"/>
     <use xlink:href="#SourceSans3-Regular-2a" transform="translate(462.609375 0)"/>
     <use xlink:href="#SourceSans3-Regular-29" transform="translate(516.8125 0)"/>
     <use xlink:href="#SourceSans3-Regular-27" transform="translate(571.515625 0)"/>
     <use xlink:href="#SourceSans3-Regular-34" transform="translate(597.015625 0)"/>
     <use xlink:href="#SourceSans3-Regular-1" transform="translate(643.71875 0)"/>
     <use xlink:href="#SourceSans3-Regular-536" transform="translate(663.71875 0)"/>
     <use xlink:href="#SourceSans3-Regular-535" transform="translate(713.421875 0)"/>
     <use xlink:href="#SourceSans3-Regular-85c" transform="translate(763.125 0)"/>
    </g>
   </g>
   <g id="text_5">
    <!-- +35% -->
    <g style="fill: #0f172a" transform="translate(608.04 72.566) scale(0.38 -0.38)">
     <defs>
      <path id="SourceSans3-Semibold-872" d="M 1363 634 
L 1363 1843 
L 218 1843 
L 218 2381 
L 1363 2381 
L 1363 3590 
L 1920 3590 
L 1920 2381 
L 3066 2381 
L 3066 1843 
L 1920 1843 
L 1920 634 
L 1363 634 
z
" transform="scale(0.015625)"/>
      <path id="SourceSans3-Semibold-538" d="M 1536 -77 
Q 1043 -77 707 92 
Q 371 262 154 499 
L 506 973 
Q 691 787 928 656 
Q 1165 525 1472 525 
Q 1805 525 2013 688 
Q 2221 851 2221 1139 
Q 2221 1350 2115 1507 
Q 2010 1664 1750 1747 
Q 1491 1830 1024 1830 
L 1024 2368 
Q 1626 2368 1856 2553 
Q 2086 2739 2086 3021 
Q 2086 3277 1926 3421 
Q 1766 3565 1485 3565 
Q 1248 3565 1049 3459 
Q 851 3354 666 3181 
L 288 3635 
Q 550 3866 848 4006 
Q 1146 4147 1510 4147 
Q 2099 4147 2464 3868 
Q 2829 3590 2829 3072 
Q 2829 2733 2640 2499 
Q 2451 2266 2118 2138 
L 2118 2112 
Q 2477 2016 2720 1760 
Q 2963 1504 2963 1101 
Q 2963 730 2768 467 
Q 2573 205 2249 64 
Q 1926 -77 1536 -77 
z
" transform="scale(0.015625)"/>
      <path id="SourceSans3-Semibold-53a" d="M 1542 -77 
Q 1050 -77 714 92 
Q 378 262 154 486 
L 493 960 
Q 678 787 908 656 
Q 1139 525 1446 525 
Q 1786 525 2010 729 
Q 2234 934 2234 1306 
Q 2234 1670 2029 1868 
Q 1824 2067 1485 2067 
Q 1286 2067 1152 2012 
Q 1018 1958 832 1837 
L 480 2061 
L 602 4070 
L 2778 4070 
L 2778 3450 
L 1242 3450 
L 1158 2464 
Q 1286 2528 1411 2563 
Q 1536 2598 1696 2598 
Q 2048 2598 2336 2464 
Q 2624 2330 2800 2048 
Q 2976 1766 2976 1325 
Q 2976 883 2774 569 
Q 2573 256 2246 89 
Q 1920 -77 1542 -77 
z
" transform="scale(0.015625)"/>
     </defs>
     <use xlink:href="#SourceSans3-Semibold-872"/>
     <use xlink:href="#SourceSans3-Semibold-538" transform="translate(51.296875 0)"/>
     <use xlink:href="#SourceSans3-Semibold-53a" transform="translate(102.59375 0)"/>
     <use xlink:href="#SourceSans3-Semibold-85c" transform="translate(153.890625 0)"/>
    </g>
   </g>
   <g id="text_6">
    <!-- campaign profit from the -->
    <g style="fill: #475569" transform="translate(609.48 109.3052) scale(0.14 -0.14)">
     <defs>
      <path id="SourceSans3-Regular-2b" d="M 525 -1312 
L 525 3110 
L 960 3110 
L 1005 2752 
L 1024 2752 
Q 1235 2931 1488 3059 
Q 1741 3187 2016 3187 
Q 2618 3187 2931 2755 
Q 3245 2323 3245 1600 
Q 3245 1075 3056 697 
Q 2867 320 2563 121 
Q 2259 -77 1901 -77 
Q 1683 -77 1468 19 
Q 1254 115 1037 282 
L 1050 -262 
L 1050 -1312 
L 525 -1312 
z
M 1811 365 
Q 2195 365 2448 694 
Q 2701 1024 2701 1600 
Q 2701 2112 2512 2429 
Q 2323 2746 1882 2746 
Q 1683 2746 1481 2637 
Q 1280 2528 1050 2323 
L 1050 691 
Q 1261 512 1459 438 
Q 1658 365 1811 365 
z
" transform="scale(0.015625)"/>
     </defs>
     <use xlink:href="#SourceSans3-Regular-1e"/>
     <use xlink:href="#SourceSans3-Regular-1c" transform="translate(44.59375 0)"/>
     <use xlink:href="#SourceSans3-Regular-28" transform="translate(95 0)"/>
     <use xlink:href="#SourceSans3-Regular-2b" transform="translate(177.90625 0)"/>
     <use xlink:href="#SourceSans3-Regular-1c" transform="translate(232 0)"/>
     <use xlink:href="#SourceSans3-Regular-24" transform="translate(282.40625 0)"/>
     <use xlink:href="#SourceSans3-Regular-22" transform="translate(307 0)"/>
     <use xlink:href="#SourceSans3-Regular-29" transform="translate(357.40625 0)"/>
     <use xlink:href="#SourceSans3-Regular-1" transform="translate(412.109375 0)"/>
     <use xlink:href="#SourceSans3-Regular-2b" transform="translate(432.109375 0)"/>
     <use xlink:href="#SourceSans3-Regular-2d" transform="translate(487.609375 0)"/>
     <use xlink:href="#SourceSans3-Regular-2a" transform="translate(521.3125 0)"/>
     <use xlink:href="#SourceSans3-Regular-21" transform="translate(575.515625 0)"/>
     <use xlink:href="#SourceSans3-Regular-24" transform="translate(604.71875 0)"/>
     <use xlink:href="#SourceSans3-Regular-2f" transform="translate(629.3125 0)"/>
     <use xlink:href="#SourceSans3-Regular-1" transform="translate(663.109375 0)"/>
     <use xlink:href="#SourceSans3-Regular-21" transform="translate(683.109375 0)"/>
     <use xlink:href="#SourceSans3-Regular-2d" transform="translate(712.3125 0)"/>
     <use xlink:href="#SourceSans3-Regular-2a" transform="translate(746.015625 0)"/>
     <use xlink:href="#SourceSans3-Regular-28" transform="translate(800.21875 0)"/>
     <use xlink:href="#SourceSans3-Regular-1" transform="translate(883.125 0)"/>
     <use xlink:href="#SourceSans3-Regular-2f" transform="translate(903.125 0)"/>
     <use xlink:href="#SourceSans3-Regular-23" transform="translate(936.921875 0)"/>
     <use xlink:href="#SourceSans3-Regular-20" transform="translate(991.328125 0)"/>
    </g>
    <!-- uplift sleeping-dog guard -->
    <g style="fill: #475569" transform="translate(609.48 135.2948) scale(0.14 -0.14)">
     <defs>
      <path id="SourceSans3-Regular-2b2" d="M 614 0 
L 614 2682 
L 154 2682 
L 154 3078 
L 614 3110 
L 614 3603 
Q 614 4077 835 4355 
Q 1056 4634 1523 4634 
Q 1670 4634 1804 4605 
Q 1939 4576 2042 4531 
L 1926 4128 
Q 1754 4205 1574 4205 
Q 1139 4205 1139 3603 
L 1139 3110 
L 2278 3110 
L 2342 3981 
L 2778 3981 
L 2778 3110 
L 3622 3110 
L 3622 2682 
L 2778 2682 
L 2778 954 
Q 2778 666 2886 509 
Q 2995 352 3264 352 
Q 3347 352 3443 381 
Q 3539 410 3616 435 
L 3718 38 
Q 3590 -6 3440 -41 
Q 3290 -77 3142 -77 
Q 2643 -77 2448 211 
Q 2253 499 2253 960 
L 2253 2682 
L 1139 2682 
L 1139 0 
L 614 0 
z
" transform="scale(0.015625)"/>
     </defs>
     <use xlink:href="#SourceSans3-Regular-30"/>
     <use xlink:href="#SourceSans3-Regular-2b" transform="translate(54.40625 0)"/>
     <use xlink:href="#SourceSans3-Regular-27" transform="translate(109.90625 0)"/>
     <use xlink:href="#SourceSans3-Regular-24" transform="translate(135.40625 0)"/>
     <use xlink:href="#SourceSans3-Regular-2b2" transform="translate(160 0)"/>
     <use xlink:href="#SourceSans3-Regular-1" transform="translate(219.40625 0)"/>
     <use xlink:href="#SourceSans3-Regular-2e" transform="translate(239.40625 0)"/>
     <use xlink:href="#SourceSans3-Regular-27" transform="translate(281.3125 0)"/>
     <use xlink:href="#SourceSans3-Regular-20" transform="translate(306.8125 0)"/>
     <use xlink:href="#SourceSans3-Regular-20" transform="translate(356.40625 0)"/>
     <use xlink:href="#SourceSans3-Regular-2b" transform="translate(406 0)"/>
     <use xlink:href="#SourceSans3-Regular-24" transform="translate(461.5 0)"/>
     <use xlink:href="#SourceSans3-Regular-29" transform="translate(486.09375 0)"/>
     <use xlink:href="#SourceSans3-Regular-22" transform="translate(540.796875 0)"/>
     <use xlink:href="#SourceSans3-Regular-587" transform="translate(591.203125 0)"/>
     <use xlink:href="#SourceSans3-Regular-1f" transform="translate(622.296875 0)"/>
     <use xlink:href="#SourceSans3-Regular-2a" transform="translate(677.796875 0)"/>
     <use xlink:href="#SourceSans3-Regular-22" transform="translate(732 0)"/>
     <use xlink:href="#SourceSans3-Regular-1" transform="translate(782.40625 0)"/>
     <use xlink:href="#SourceSans3-Regular-22" transform="translate(802.40625 0)"/>
     <use xlink:href="#SourceSans3-Regular-30" transform="translate(852.8125 0)"/>
     <use xlink:href="#SourceSans3-Regular-1c" transform="translate(907.21875 0)"/>
     <use xlink:href="#SourceSans3-Regular-2d" transform="translate(957.625 0)"/>
     <use xlink:href="#SourceSans3-Regular-1f" transform="translate(991.328125 0)"/>
    </g>
   </g>
   <g id="text_7">
    <!-- 84 s -->
    <g style="fill: #0f172a" transform="translate(881.64 72.566) scale(0.38 -0.38)">
     <defs>
      <path id="SourceSans3-Semibold-1" transform="scale(0.015625)"/>
      <path id="SourceSans3-Semibold-2e" d="M 1344 -77 
Q 1018 -77 701 44 
Q 384 166 154 384 
L 480 806 
Q 685 634 905 557 
Q 1126 480 1370 480 
Q 1626 480 1747 589 
Q 1869 698 1869 858 
Q 1869 1056 1670 1158 
Q 1472 1261 1210 1357 
Q 986 1440 784 1558 
Q 582 1677 457 1853 
Q 333 2029 333 2278 
Q 333 2694 640 2956 
Q 947 3219 1472 3219 
Q 1792 3219 2061 3113 
Q 2330 3008 2522 2842 
L 2195 2426 
Q 1862 2662 1491 2662 
Q 1254 2662 1139 2563 
Q 1024 2464 1024 2317 
Q 1024 2144 1190 2051 
Q 1357 1958 1651 1856 
Q 1894 1773 2102 1654 
Q 2310 1536 2438 1353 
Q 2566 1171 2566 896 
Q 2566 493 2252 208 
Q 1939 -77 1344 -77 
z
" transform="scale(0.015625)"/>
     </defs>
     <use xlink:href="#SourceSans3-Semibold-53d"/>
     <use xlink:href="#SourceSans3-Semibold-539" transform="translate(51.296875 0)"/>
     <use xlink:href="#SourceSans3-Semibold-1" transform="translate(102.59375 0)"/>
     <use xlink:href="#SourceSans3-Semibold-2e" transform="translate(122.59375 0)"/>
    </g>
   </g>
   <g id="text_8">
    <!-- monthly run for 1M subscribers, -->
    <g style="fill: #475569" transform="translate(883.08 109.4102) scale(0.14 -0.14)">
     <defs>
      <path id="SourceSans3-Regular-e" d="M 576 0 
L 576 4198 
L 1248 4198 
L 2042 1952 
Q 2112 1734 2182 1526 
Q 2253 1318 2323 1082 
L 2349 1082 
Q 2419 1318 2480 1526 
Q 2541 1734 2618 1952 
L 3411 4198 
L 4077 4198 
L 4077 0 
L 3578 0 
L 3578 2310 
Q 3578 2496 3590 2726 
Q 3603 2957 3622 3184 
Q 3642 3411 3654 3597 
L 3629 3597 
L 3302 2586 
L 2515 416 
L 2125 416 
L 1338 2586 
L 1011 3597 
L 986 3597 
Q 1005 3411 1024 3184 
Q 1043 2957 1052 2726 
Q 1062 2496 1062 2310 
L 1062 0 
L 576 0 
z
" transform="scale(0.015625)"/>
      <path id="SourceSans3-Regular-56c" d="M 429 -1088 
L 301 -781 
Q 576 -659 729 -457 
Q 883 -256 877 0 
Q 864 -6 845 -6 
Q 826 -6 813 -6 
Q 659 -6 547 86 
Q 435 179 435 358 
Q 435 531 550 630 
Q 666 730 826 730 
Q 1030 730 1148 563 
Q 1267 397 1267 109 
Q 1267 -301 1043 -611 
Q 819 -922 429 -1088 
z
" transform="scale(0.015625)"/>
     </defs>
     <use xlink:href="#SourceSans3-Regular-28"/>
     <use xlink:href="#SourceSans3-Regular-2a" transform="translate(82.90625 0)"/>
     <use xlink:href="#SourceSans3-Regular-29" transform="translate(137.109375 0)"/>
     <use xlink:href="#SourceSans3-Regular-2f" transform="translate(191.8125 0)"/>
     <use xlink:href="#SourceSans3-Regular-23" transform="translate(225.609375 0)"/>
     <use xlink:href="#SourceSans3-Regular-27" transform="translate(280.015625 0)"/>
     <use xlink:href="#SourceSans3-Regular-34" transform="translate(305.515625 0)"/>
     <use xlink:href="#SourceSans3-Regular-1" transform="translate(352.21875 0)"/>
     <use xlink:href="#SourceSans3-Regular-2d" transform="translate(372.21875 0)"/>
     <use xlink:href="#SourceSans3-Regular-30" transform="translate(406.921875 0)"/>
     <use xlink:href="#SourceSans3-Regular-29" transform="translate(461.328125 0)"/>
     <use xlink:href="#SourceSans3-Regular-1" transform="translate(516.03125 0)"/>
     <use xlink:href="#SourceSans3-Regular-21" transform="translate(536.03125 0)"/>
     <use xlink:href="#SourceSans3-Regular-2a" transform="translate(564.234375 0)"/>
     <use xlink:href="#SourceSans3-Regular-2d" transform="translate(618.4375 0)"/>
     <use xlink:href="#SourceSans3-Regular-1" transform="translate(653.140625 0)"/>
     <use xlink:href="#SourceSans3-Regular-536" transform="translate(673.140625 0)"/>
     <use xlink:href="#SourceSans3-Regular-e" transform="translate(722.84375 0)"/>
     <use xlink:href="#SourceSans3-Regular-1" transform="translate(795.546875 0)"/>
     <use xlink:href="#SourceSans3-Regular-2e" transform="translate(815.546875 0)"/>
     <use xlink:href="#SourceSans3-Regular-30" transform="translate(857.453125 0)"/>
     <use xlink:href="#SourceSans3-Regular-1d" transform="translate(911.859375 0)"/>
     <use xlink:href="#SourceSans3-Regular-2e" transform="translate(967.15625 0)"/>
     <use xlink:href="#SourceSans3-Regular-1e" transform="translate(1009.0625 0)"/>
     <use xlink:href="#SourceSans3-Regular-2d" transform="translate(1054.65625 0)"/>
     <use xlink:href="#SourceSans3-Regular-24" transform="translate(1089.359375 0)"/>
     <use xlink:href="#SourceSans3-Regular-1d" transform="translate(1113.953125 0)"/>
     <use xlink:href="#SourceSans3-Regular-20" transform="translate(1169.25 0)"/>
     <use xlink:href="#SourceSans3-Regular-2d" transform="translate(1218.84375 0)"/>
     <use xlink:href="#SourceSans3-Regular-2e" transform="translate(1253.140625 0)"/>
     <use xlink:href="#SourceSans3-Regular-56c" transform="translate(1295.046875 0)"/>
    </g>
    <!-- validated, scored, explained -->
    <g style="fill: #475569" transform="translate(883.08 135.344019) scale(0.14 -0.14)">
     <defs>
      <path id="SourceSans3-Regular-33" d="M 90 0 
L 1107 1626 
L 166 3110 
L 736 3110 
L 1152 2426 
Q 1222 2304 1299 2169 
Q 1376 2035 1459 1907 
L 1485 1907 
Q 1555 2035 1625 2169 
Q 1696 2304 1766 2426 
L 2144 3110 
L 2694 3110 
L 1754 1568 
L 2765 0 
L 2195 0 
L 1741 723 
Q 1658 864 1574 1005 
Q 1491 1146 1402 1280 
L 1376 1280 
Q 1293 1146 1216 1008 
Q 1139 870 1062 723 
L 640 0 
L 90 0 
z
" transform="scale(0.015625)"/>
     </defs>
     <use xlink:href="#SourceSans3-Regular-31"/>
     <use xlink:href="#SourceSans3-Regular-1c" transform="translate(44.703125 0)"/>
     <use xlink:href="#SourceSans3-Regular-27" transform="translate(95.109375 0)"/>
     <use xlink:href="#SourceSans3-Regular-24" transform="translate(120.609375 0)"/>
     <use xlink:href="#SourceSans3-Regular-1f" transform="translate(145.203125 0)"/>
     <use xlink:href="#SourceSans3-Regular-1c" transform="translate(200.703125 0)"/>
     <use xlink:href="#SourceSans3-Regular-2f" transform="translate(249.703125 0)"/>
     <use xlink:href="#SourceSans3-Regular-20" transform="translate(282.09375 0)"/>
     <use xlink:href="#SourceSans3-Regular-1f" transform="translate(331.6875 0)"/>
     <use xlink:href="#SourceSans3-Regular-56c" transform="translate(387.1875 0)"/>
     <use xlink:href="#SourceSans3-Regular-1" transform="translate(412.09375 0)"/>
     <use xlink:href="#SourceSans3-Regular-2e" transform="translate(432.09375 0)"/>
     <use xlink:href="#SourceSans3-Regular-1e" transform="translate(474 0)"/>
     <use xlink:href="#SourceSans3-Regular-2a" transform="translate(517.5 0)"/>
     <use xlink:href="#SourceSans3-Regular-2d" transform="translate(571.703125 0)"/>
     <use xlink:href="#SourceSans3-Regular-20" transform="translate(605.40625 0)"/>
     <use xlink:href="#SourceSans3-Regular-1f" transform="translate(655 0)"/>
     <use xlink:href="#SourceSans3-Regular-56c" transform="translate(710.5 0)"/>
     <use xlink:href="#SourceSans3-Regular-1" transform="translate(735.40625 0)"/>
     <use xlink:href="#SourceSans3-Regular-20" transform="translate(755.40625 0)"/>
     <use xlink:href="#SourceSans3-Regular-33" transform="translate(804.296875 0)"/>
     <use xlink:href="#SourceSans3-Regular-2b" transform="translate(848.890625 0)"/>
     <use xlink:href="#SourceSans3-Regular-27" transform="translate(904.390625 0)"/>
     <use xlink:href="#SourceSans3-Regular-1c" transform="translate(929.890625 0)"/>
     <use xlink:href="#SourceSans3-Regular-24" transform="translate(980.296875 0)"/>
     <use xlink:href="#SourceSans3-Regular-29" transform="translate(1004.890625 0)"/>
     <use xlink:href="#SourceSans3-Regular-20" transform="translate(1059.59375 0)"/>
     <use xlink:href="#SourceSans3-Regular-1f" transform="translate(1109.1875 0)"/>
    </g>
   </g>
  </g>
 </g>
 <defs>
  <clipPath id="p5a2bec0b04">
   <rect x="0" y="0" width="1152" height="169.2"/>
  </clipPath>
 </defs>
</svg>
